{
  "accessors": [
    {
      "bufferView": 2,
      "componentType": 5126,
      "count": 418,
      "max": [
        3.615858316421509,
        0.8141074776649475,
        0.9865418076515198
      ],
      "min": [
        -0.41509127616882324,
        -46.27836227416992,
        -2.584749460220337
      ],
      "type": "VEC3"
    },
    {
      "bufferView": 2,
      "byteOffset": 5016,
      "componentType": 5126,
      "count": 418,
      "max": [
        0.999875545501709,
        0.9980111122131348,
        0.9894980192184448
      ],
      "min": [
        -0.9999885559082031,
        -0.9980106949806213,
        -0.9894980192184448
      ],
      "type": "VEC3"
    },
    {
      "bufferView": 3,
      "componentType": 5126,
      "count": 418,
      "max": [
        0.9915194511413574,
        0.9997462034225464,
        0.9889496564865112,
        1.0
      ],
      "min": [
        -0.9603384733200073,
        -0.9997462034225464,
        -0.9984444379806519,
        -1.0
      ],
      "type": "VEC4"
    },
    {
      "bufferView": 1,
      "componentType": 5126,
      "count": 418,
      "max": [
        0.2613890767097473,
        0.46434998512268066
      ],
      "min": [
        0.031821008771657944,
        0.0010099795181304216
      ],
      "type": "VEC2"
    },
    {
      "bufferView": 1,
      "byteOffset": 3344,
      "componentType": 5126,
      "count": 418,
      "max": [
        0.2613890767097473,
        0.46434998512268066
      ],
      "min": [
        0.031821008771657944,
        0.0010099795181304216
      ],
      "type": "VEC2"
    },
    {
      "bufferView": 1,
      "byteOffset": 6688,
      "componentType": 5126,
      "count": 418,
      "max": [
        0.2613890767097473,
        0.46434998512268066
      ],
      "min": [
        0.031821008771657944,
        0.0010099795181304216
      ],
      "type": "VEC2"
    },
    {
      "bufferView": 1,
      "byteOffset": 10032,
      "componentType": 5126,
      "count": 418,
      "max": [
        0.2613890767097473,
        0.46434998512268066
      ],
      "min": [
        0.031821008771657944,
        0.0010099795181304216
      ],
      "type": "VEC2"
    },
    {
      "bufferView": 0,
      "componentType": 5125,
      "count": 1920,
      "type": "SCALAR"
    },
    {
      "bufferView": 2,
      "byteOffset": 10032,
      "componentType": 5126,
      "count": 177,
      "max": [
        -3.203026294708252,
        2.084531307220459,
        0.9866070747375488
      ],
      "min": [
        -14.832742691040039,
        -1.8539838790893555,
        -5.963444709777832
      ],
      "type": "VEC3"
    },
    {
      "bufferView": 2,
      "byteOffset": 12156,
      "componentType": 5126,
      "count": 177,
      "max": [
        0.9944912791252136,
        0.9708465337753296,
        0.9966884255409241
      ],
      "min": [
        -0.9992725849151611,
        -0.9884670972824097,
        -0.9978495240211487
      ],
      "type": "VEC3"
    },
    {
      "bufferView": 3,
      "byteOffset": 6688,
      "componentType": 5126,
      "count": 177,
      "max": [
        0.9937835931777954,
        0.9326921701431274,
        0.9961811304092407,
        1.0
      ],
      "min": [
        -0.9959239959716797,
        -1.0,
        -0.9999332427978516,
        1.0
      ],
      "type": "VEC4"
    },
    {
      "bufferView": 1,
      "byteOffset": 13376,
      "componentType": 5126,
      "count": 177,
      "max": [
        0.7534156441688538,
        0.8226068019866943
      ],
      "min": [
        0.07675600796937943,
        0.0007419156027026474
      ],
      "type": "VEC2"
    },
    {
      "bufferView": 1,
      "byteOffset": 14792,
      "componentType": 5126,
      "count": 177,
      "max": [
        0.7534156441688538,
        0.8226068019866943
      ],
      "min": [
        0.07675600796937943,
        0.0007419156027026474
      ],
      "type": "VEC2"
    },
    {
      "bufferView": 1,
      "byteOffset": 16208,
      "componentType": 5126,
      "count": 177,
      "max": [
        0.7534156441688538,
        0.8226068019866943
      ],
      "min": [
        0.07675600796937943,
        0.0007419156027026474
      ],
      "type": "VEC2"
    },
    {
      "bufferView": 1,
      "byteOffset": 17624,
      "componentType": 5126,
      "count": 177,
      "max": [
        0.7534156441688538,
        0.8226068019866943
      ],
      "min": [
        0.07675600796937943,
        0.0007419156027026474
      ],
      "type": "VEC2"
    },
    {
      "bufferView": 0,
      "byteOffset": 7680,
      "componentType": 5125,
      "count": 792,
      "type": "SCALAR"
    },
    {
      "bufferView": 2,
      "byteOffset": 14280,
      "componentType": 5126,
      "count": 884,
      "max": [
        2.412203550338745,
        1.7801343202590942,
        2.0386252403259277
      ],
      "min": [
        -2.941842794418335,
        -6.916630268096924,
        -1.9464216232299805
      ],
      "type": "VEC3"
    },
    {
      "bufferView": 2,
      "byteOffset": 24888,
      "componentType": 5126,
      "count": 884,
      "max": [
        0.9977444410324097,
        0.9978580474853516,
        1.0
      ],
      "min": [
        -0.9985201954841614,
        -0.9978580474853516,
        -1.0
      ],
      "type": "VEC3"
    },
    {
      "bufferView": 3,
      "byteOffset": 9520,
      "componentType": 5126,
      "count": 884,
      "max": [
        0.8604455590248108,
        1.0,
        0.9978030323982239,
        1.0
      ],
      "min": [
        -0.9880264401435852,
        -1.0,
        -0.9968203902244568,
        -1.0
      ],
      "type": "VEC4"
    },
    {
      "bufferView": 1,
      "byteOffset": 19040,
      "componentType": 5126,
      "count": 884,
      "max": [
        0.9998629093170166,
        0.7877324223518372
      ],
      "min": [
        0.00013704257435165346,
        0.00013702393334824592
      ],
      "type": "VEC2"
    },
    {
      "bufferView": 1,
      "byteOffset": 26112,
      "componentType": 5126,
      "count": 884,
      "max": [
        0.9998629093170166,
        0.7877324223518372
      ],
      "min": [
        0.00013704257435165346,
        0.00013702393334824592
      ],
      "type": "VEC2"
    },
    {
      "bufferView": 1,
      "byteOffset": 33184,
      "componentType": 5126,
      "count": 884,
      "max": [
        0.9998629093170166,
        0.7877324223518372
      ],
      "min": [
        0.00013704257435165346,
        0.00013702393334824592
      ],
      "type": "VEC2"
    },
    {
      "bufferView": 0,
      "byteOffset": 10848,
      "componentType": 5125,
      "count": 4536,
      "type": "SCALAR"
    },
    {
      "bufferView": 2,
      "byteOffset": 35496,
      "componentType": 5126,
      "count": 3696,
      "max": [
        16.532974243164063,
        2.1637327671051025,
        2.9767558574676514
      ],
      "min": [
        14.532965660095215,
        0.163732647895813,
        -2.9767558574676514
      ],
      "type": "VEC3"
    },
    {
      "bufferView": 2,
      "byteOffset": 79848,
      "componentType": 5126,
      "count": 3696,
      "max": [
        1.0,
        1.0,
        1.0
      ],
      "min": [
        -1.0,
        -1.0,
        -1.0
      ],
      "type": "VEC3"
    },
    {
      "bufferView": 3,
      "byteOffset": 23664,
      "componentType": 5126,
      "count": 3696,
      "max": [
        1.0,
        1.0,
        1.0,
        1.0
      ],
      "min": [
        -1.0,
        -1.0,
        -1.0,
        -1.0
      ],
      "type": "VEC4"
    },
    {
      "bufferView": 1,
      "byteOffset": 40256,
      "componentType": 5126,
      "count": 3696,
      "max": [
        0.9995895028114319,
        0.9920249581336975
      ],
      "min": [
        0.0007692347280681133,
        0.0006192998262122273
      ],
      "type": "VEC2"
    },
    {
      "bufferView": 1,
      "byteOffset": 69824,
      "componentType": 5126,
      "count": 3696,
      "max": [
        0.9995895028114319,
        0.9920249581336975
      ],
      "min": [
        0.0007692347280681133,
        0.0006192998262122273
      ],
      "type": "VEC2"
    },
    {
      "bufferView": 1,
      "byteOffset": 99392,
      "componentType": 5126,
      "count": 3696,
      "max": [
        0.9995895028114319,
        0.9920249581336975
      ],
      "min": [
        0.0007692347280681133,
        0.0006192998262122273
      ],
      "type": "VEC2"
    },
    {
      "bufferView": 0,
      "byteOffset": 28992,
      "componentType": 5125,
      "count": 15480,
      "type": "SCALAR"
    },
    {
      "bufferView": 2,
      "byteOffset": 124200,
      "componentType": 5126,
      "count": 3696,
      "max": [
        8.623960494995117,
        2.1637327671051025,
        2.9767558574676514
      ],
      "min": [
        6.623952865600586,
        0.163732647895813,
        -2.9767558574676514
      ],
      "type": "VEC3"
    },
    {
      "bufferView": 2,
      "byteOffset": 168552,
      "componentType": 5126,
      "count": 3696,
      "max": [
        1.0,
        1.0,
        1.0
      ],
      "min": [
        -1.0,
        -1.0,
        -1.0
      ],
      "type": "VEC3"
    },
    {
      "bufferView": 3,
      "byteOffset": 82800,
      "componentType": 5126,
      "count": 3696,
      "max": [
        1.0,
        1.0,
        1.0,
        1.0
      ],
      "min": [
        -1.0,
        -1.0,
        -1.0,
        -1.0
      ],
      "type": "VEC4"
    },
    {
      "bufferView": 1,
      "byteOffset": 128960,
      "componentType": 5126,
      "count": 3696,
      "max": [
        0.9995895028114319,
        0.9920249581336975
      ],
      "min": [
        0.0007692347280681133,
        0.0006192998262122273
      ],
      "type": "VEC2"
    },
    {
      "bufferView": 1,
      "byteOffset": 158528,
      "componentType": 5126,
      "count": 3696,
      "max": [
        0.9995895028114319,
        0.9920249581336975
      ],
      "min": [
        0.0007692347280681133,
        0.0006192998262122273
      ],
      "type": "VEC2"
    },
    {
      "bufferView": 1,
      "byteOffset": 188096,
      "componentType": 5126,
      "count": 3696,
      "max": [
        0.9995895028114319,
        0.9920249581336975
      ],
      "min": [
        0.0007692347280681133,
        0.0006192998262122273
      ],
      "type": "VEC2"
    },
    {
      "bufferView": 0,
      "byteOffset": 90912,
      "componentType": 5125,
      "count": 15480,
      "type": "SCALAR"
    },
    {
      "bufferView": 2,
      "byteOffset": 212904,
      "componentType": 5126,
      "count": 4652,
      "max": [
        53.378578186035156,
        8.421939849853516,
        1.403395414352417
      ],
      "min": [
        11.458975791931152,
        -8.421939849853516,
        -5.550088405609131
      ],
      "type": "VEC3"
    },
    {
      "bufferView": 2,
      "byteOffset": 268728,
      "componentType": 5126,
      "count": 4652,
      "max": [
        1.0,
        0.9999999403953552,
        1.0
      ],
      "min": [
        -0.9999865889549255,
        -0.9999999403953552,
        -1.0
      ],
      "type": "VEC3"
    },
    {
      "bufferView": 3,
      "byteOffset": 141936,
      "componentType": 5126,
      "count": 4652,
      "max": [
        1.0,
        1.0,
        0.9998716711997986,
        1.0
      ],
      "min": [
        -0.9999969601631165,
        -1.0,
        -0.9999921321868896,
        -1.0
      ],
      "type": "VEC4"
    },
    {
      "bufferView": 1,
      "byteOffset": 217664,
      "componentType": 5126,
      "count": 4652,
      "max": [
        0.9732899069786072,
        0.9994288682937622
      ],
      "min": [
        0.0006678783101961017,
        0.0007078532944433391
      ],
      "type": "VEC2"
    },
    {
      "bufferView": 1,
      "byteOffset": 254880,
      "componentType": 5126,
      "count": 4652,
      "max": [
        0.9732899069786072,
        0.9994288682937622
      ],
      "min": [
        0.0006678783101961017,
        0.0007078532944433391
      ],
      "type": "VEC2"
    },
    {
      "bufferView": 1,
      "byteOffset": 292096,
      "componentType": 5126,
      "count": 4652,
      "max": [
        0.9732899069786072,
        0.9994288682937622
      ],
      "min": [
        0.0006678783101961017,
        0.0007078532944433391
      ],
      "type": "VEC2"
    },
    {
      "bufferView": 1,
      "byteOffset": 329312,
      "componentType": 5126,
      "count": 4652,
      "max": [
        0.9732899069786072,
        0.9994288682937622
      ],
      "min": [
        0.0006678783101961017,
        0.0007078532944433391
      ],
      "type": "VEC2"
    },
    {
      "bufferView": 0,
      "byteOffset": 152832,
      "componentType": 5125,
      "count": 22032,
      "type": "SCALAR"
    },
    {
      "bufferView": 2,
      "byteOffset": 324552,
      "componentType": 5126,
      "count": 366,
      "max": [
        50.9393196105957,
        7.002643585205078,
        -2.3786861896514893
      ],
      "min": [
        47.73685073852539,
        -7.002643585205078,
        -4.39418888092041
      ],
      "type": "VEC3"
    },
    {
      "bufferView": 2,
      "byteOffset": 328944,
      "componentType": 5126,
      "count": 366,
      "max": [
        0.9925513863563538,
        0.9939751029014587,
        0.9984853863716125
      ],
      "min": [
        -0.9984662532806396,
        -0.9939749240875244,
        -0.9969766736030579
      ],
      "type": "VEC3"
    },
    {
      "bufferView": 3,
      "byteOffset": 216368,
      "componentType": 5126,
      "count": 366,
      "max": [
        0.9913498163223267,
        0.9950498342514038,
        0.9598518013954163,
        1.0
      ],
      "min": [
        -0.9916225671768188,
        -0.995049774646759,
        -0.9695016145706177,
        -1.0
      ],
      "type": "VEC4"
    },
    {
      "bufferView": 1,
      "byteOffset": 366528,
      "componentType": 5126,
      "count": 366,
      "max": [
        0.907058835029602,
        0.9997727274894714
      ],
      "min": [
        0.00022723255096934736,
        0.6141433715820313
      ],
      "type": "VEC2"
    },
    {
      "bufferView": 1,
      "byteOffset": 369456,
      "componentType": 5126,
      "count": 366,
      "max": [
        0.907058835029602,
        0.9997727274894714
      ],
      "min": [
        0.00022723255096934736,
        0.6141433715820313
      ],
      "type": "VEC2"
    },
    {
      "bufferView": 1,
      "byteOffset": 372384,
      "componentType": 5126,
      "count": 366,
      "max": [
        0.907058835029602,
        0.9997727274894714
      ],
      "min": [
        0.00022723255096934736,
        0.6141433715820313
      ],
      "type": "VEC2"
    },
    {
      "bufferView": 0,
      "byteOffset": 240960,
      "componentType": 5125,
      "count": 1632,
      "type": "SCALAR"
    },
    {
      "bufferView": 2,
      "byteOffset": 333336,
      "componentType": 5126,
      "count": 208,
      "max": [
        35.503475189208984,
        5.222164630889893,
        2.762763261795044
      ],
      "min": [
        29.78734016418457,
        -5.222164630889893,
        0.4117911756038666
      ],
      "type": "VEC3"
    },
    {
      "bufferView": 2,
      "byteOffset": 335832,
      "componentType": 5126,
      "count": 208,
      "max": [
        0.9683976769447327,
        0.9885920882225037,
        0.9920992851257324
      ],
      "min": [
        -0.9712902903556824,
        -0.9885918498039246,
        -0.9859448671340942
      ],
      "type": "VEC3"
    },
    {
      "bufferView": 3,
      "byteOffset": 222224,
      "componentType": 5126,
      "count": 208,
      "max": [
        0.9836026430130005,
        0.9995154142379761,
        0.9683976769447327,
        1.0
      ],
      "min": [
        -0.9648445844650269,
        -0.9995154142379761,
        -0.9601914286613464,
        -1.0
      ],
      "type": "VEC4"
    },
    {
      "bufferView": 1,
      "byteOffset": 375312,
      "componentType": 5126,
      "count": 208,
      "max": [
        0.9997687935829163,
        0.6136894226074219
      ],
      "min": [
        0.00022728616022504866,
        0.00022739294217899442
      ],
      "type": "VEC2"
    },
    {
      "bufferView": 1,
      "byteOffset": 376976,
      "componentType": 5126,
      "count": 208,
      "max": [
        0.9997687935829163,
        0.6136894226074219
      ],
      "min": [
        0.00022728616022504866,
        0.00022739294217899442
      ],
      "type": "VEC2"
    },
    {
      "bufferView": 1,
      "byteOffset": 378640,
      "componentType": 5126,
      "count": 208,
      "max": [
        0.9997687935829163,
        0.6136894226074219
      ],
      "min": [
        0.00022728616022504866,
        0.00022739294217899442
      ],
      "type": "VEC2"
    },
    {
      "bufferView": 0,
      "byteOffset": 247488,
      "componentType": 5125,
      "count": 804,
      "type": "SCALAR"
    }
  ],
  "asset": {
    "extras": {
      "author": "joshuagoldenburgh (https://sketchfab.com/joshuagoldenburgh)",
      "license": "CC-BY-4.0 (http://creativecommons.org/licenses/by/4.0/)",
      "source": "https://sketchfab.com/3d-models/speed-racers-mach-5-2008-no-interior-5c71ccd9386f4caaa69fefd0da4bc0ac",
      "title": "Speed Racer's Mach 5 - 2008 (No interior)"
    },
    "generator": "Sketchfab-17.15.0",
    "version": "2.0"
  },
  "bufferViews": [
    {
      "buffer": 0,
      "byteLength": 250704,
      "name": "floatBufferViews",
      "target": 34963
    },
    {
      "buffer": 0,
      "byteLength": 380304,
      "byteOffset": 250704,
      "byteStride": 8,
      "name": "floatBufferViews",
      "target": 34962
    },
    {
      "buffer": 0,
      "byteLength": 338328,
      "byteOffset": 631008,
      "byteStride": 12,
      "name": "floatBufferViews",
      "target": 34962
    },
    {
      "buffer": 0,
      "byteLength": 225552,
      "byteOffset": 969336,
      "byteStride": 16,
      "name": "floatBufferViews",
      "target": 34962
    }
  ],
  "buffers": [
    {
      "byteLength": 1194888,
      "uri": "scene.bin"
    }
  ],
  "extensionsUsed": [
    "KHR_materials_emissive_strength"
  ],
  "images": [
    {
      "uri": "textures/Mach_5_body_baseColor.png"
    },
    {
      "uri": "textures/Mach_5_body_metallicRoughness.png"
    },
    {
      "uri": "textures/Mach_5_body_emissive.png"
    },
    {
      "uri": "textures/Mach_5_body_normal.png"
    },
    {
      "uri": "textures/Mach_5_chairs_baseColor.png"
    },
    {
      "uri": "textures/Mach_5_chairs_metallicRoughness.png"
    },
    {
      "uri": "textures/Mach_5_chairs_normal.png"
    },
    {
      "uri": "textures/Mach_5_Wheel_baseColor.png"
    },
    {
      "uri": "textures/Mach_5_Wheel_metallicRoughness.png"
    },
    {
      "uri": "textures/Mach_5_Wheel_normal.png"
    },
    {
      "uri": "textures/Mach_5_Glass_baseColor.png"
    },
    {
      "uri": "textures/Mach_5_Glass_metallicRoughness.png"
    },
    {
      "uri": "textures/Mach_5_Glass_normal.png"
    }
  ],
  "materials": [
    {
      "doubleSided": true,
      "emissiveFactor": [
        1.0,
        1.0,
        1.0
      ],
      "emissiveTexture": {
        "index": 2
      },
      "extensions": {
        "KHR_materials_emissive_strength": {
          "emissiveStrength": 7.177164730406797
        }
      },
      "name": "Mach_5_body",
      "normalTexture": {
        "index": 3
      },
      "pbrMetallicRoughness": {
        "baseColorTexture": {
          "index": 0
        },
        "metallicRoughnessTexture": {
          "index": 1
        }
      }
    },
    {
      "doubleSided": true,
      "name": "Mach_5_chairs",
      "normalTexture": {
        "index": 6
      },
      "pbrMetallicRoughness": {
        "baseColorTexture": {
          "index": 4
        },
        "metallicRoughnessTexture": {
          "index": 5
        }
      }
    },
    {
      "doubleSided": true,
      "name": "Mach_5_Wheel",
      "normalTexture": {
        "index": 9
      },
      "pbrMetallicRoughness": {
        "baseColorTexture": {
          "index": 7
        },
        "metallicRoughnessTexture": {
          "index": 8
        }
      }
    },
    {
      "alphaMode": "BLEND",
      "doubleSided": true,
      "name": "Mach_5_Glass",
      "normalTexture": {
        "index": 12
      },
      "pbrMetallicRoughness": {
        "baseColorFactor": [
          1.0,
          1.0,
          1.0,
          0.6750496763418707
        ],
        "baseColorTexture": {
          "index": 10
        },
        "metallicRoughnessTexture": {
          "index": 11
        }
      }
    }
  ],
  "meshes": [
    {
      "name": "Cube_Mach 5 body_0",
      "primitives": [
        {
          "attributes": {
            "NORMAL": 1,
            "POSITION": 0,
            "TANGENT": 2,
            "TEXCOORD_0": 3,
            "TEXCOORD_1": 4,
            "TEXCOORD_2": 5,
            "TEXCOORD_3": 6
          },
          "indices": 7,
          "material": 0,
          "mode": 4
        }
      ]
    },
    {
      "name": "Cube.001_Mach 5 body_0",
      "primitives": [
        {
          "attributes": {
            "NORMAL": 9,
            "POSITION": 8,
            "TANGENT": 10,
            "TEXCOORD_0": 11,
            "TEXCOORD_1": 12,
            "TEXCOORD_2": 13,
            "TEXCOORD_3": 14
          },
          "indices": 15,
          "material": 0,
          "mode": 4
        }
      ]
    },
    {
      "name": "Cube.002_Mach 5 chairs_0",
      "primitives": [
        {
          "attributes": {
            "NORMAL": 17,
            "POSITION": 16,
            "TANGENT": 18,
            "TEXCOORD_0": 19,
            "TEXCOORD_1": 20,
            "TEXCOORD_2": 21
          },
          "indices": 22,
          "material": 1,
          "mode": 4
        }
      ]
    },
    {
      "name": "Cylinder_Mach 5 Wheel_0",
      "primitives": [
        {
          "attributes": {
            "NORMAL": 24,
            "POSITION": 23,
            "TANGENT": 25,
            "TEXCOORD_0": 26,
            "TEXCOORD_1": 27,
            "TEXCOORD_2": 28
          },
          "indices": 29,
          "material": 2,
          "mode": 4
        }
      ]
    },
    {
      "name": "Cylinder.001_Mach 5 Wheel_0",
      "primitives": [
        {
          "attributes": {
            "NORMAL": 31,
            "POSITION": 30,
            "TANGENT": 32,
            "TEXCOORD_0": 33,
            "TEXCOORD_1": 34,
            "TEXCOORD_2": 35
          },
          "indices": 36,
          "material": 2,
          "mode": 4
        }
      ]
    },
    {
      "name": "Plane_Mach 5 body_0",
      "primitives": [
        {
          "attributes": {
            "NORMAL": 38,
            "POSITION": 37,
            "TANGENT": 39,
            "TEXCOORD_0": 40,
            "TEXCOORD_1": 41,
            "TEXCOORD_2": 42,
            "TEXCOORD_3": 43
          },
          "indices": 44,
          "material": 0,
          "mode": 4
        }
      ]
    },
    {
      "name": "Plane.001_Mach 5 Glass_0",
      "primitives": [
        {
          "attributes": {
            "NORMAL": 46,
            "POSITION": 45,
            "TANGENT": 47,
            "TEXCOORD_0": 48,
            "TEXCOORD_1": 49,
            "TEXCOORD_2": 50
          },
          "indices": 51,
          "material": 3,
          "mode": 4
        }
      ]
    },
    {
      "name": "Plane.002_Mach 5 Glass_0",
      "primitives": [
        {
          "attributes": {
            "NORMAL": 53,
            "POSITION": 52,
            "TANGENT": 54,
            "TEXCOORD_0": 55,
            "TEXCOORD_1": 56,
            "TEXCOORD_2": 57
          },
          "indices": 58,
          "material": 3,
          "mode": 4
        }
      ]
    }
  ],
  "nodes": [
    {
      "children": [
        1
      ],
      "matrix": [
        1.0,
        0.0,
        0.0,
        0.0,
        0.0,
        2.220446049250313e-16,
        -1.0,
        0.0,
        0.0,
        1.0,
        2.220446049250313e-16,
        0.0,
        0.0,
        0.0,
        0.0,
        1.0
      ],
      "name": "Sketchfab_model"
    },
    {
      "children": [
        2
      ],
      "matrix": [
        0.009999999776482582,
        0.0,
        0.0,
        0.0,
        0.0,
        0.0,
        0.009999999776482582,
        0.0,
        0.0,
        -0.009999999776482582,
        0.0,
        0.0,
        0.0,
        0.0,
        0.0,
        1.0
      ],
      "name": "34f5c3c6b7d64920a42df7cb268de561.fbx"
    },
    {
      "children": [
        3,
        5,
        7,
        9,
        11,
        13,
        15,
        17
      ],
      "name": "RootNode"
    },
    {
      "children": [
        4
      ],
      "matrix": [
        2.5657758712768555,
        0.0,
        0.0,
        0.0,
        0.0,
        -4.180179481155935e-07,
        -2.5657758712768217,
        0.0,
        0.0,
        2.5657758712768217,
        -4.180179481155935e-07,
        0.0,
        268.4147033691406,
        11.674991607666016,
        -58.32555389404297,
        1.0
      ],
      "name": "Cube"
    },
    {
      "mesh": 0,
      "name": "Cube_Mach 5 body_0"
    },
    {
      "children": [
        6
      ],
      "matrix": [
        5.231093406677246,
        0.0,
        0.0,
        0.0,
        0.0,
        -8.522532917779868e-07,
        -5.231093406677177,
        0.0,
        0.0,
        5.231093406677177,
        -8.522532917779868e-07,
        0.0,
        199.31077575683594,
        19.392183303833008,
        -22.143775939941406,
        1.0
      ],
      "name": "Cube.001"
    },
    {
      "mesh": 1,
      "name": "Cube.001_Mach 5 body_0"
    },
    {
      "children": [
        8
      ],
      "matrix": [
        8.882591247558594,
        0.0,
        0.0,
        0.0,
        0.0,
        -1.4471578008121815e-06,
        -8.882591247558477,
        0.0,
        0.0,
        8.882591247558477,
        -1.4471578008121815e-06,
        0.0,
        206.21084594726563,
        -9.210902214050293,
        -22.812692642211914,
        1.0
      ],
      "name": "Cube.002"
    },
    {
      "mesh": 2,
      "name": "Cube.002_Mach 5 chairs_0"
    },
    {
      "children": [
        10
      ],
      "matrix": [
        20.525775909423828,
        0.0,
        0.0,
        0.0,
        0.0,
        -20.5257759094236,
        -3.0993059355465846e-06,
        0.0,
        0.0,
        3.0993059355465846e-06,
        -20.5257759094236,
        0.0,
        0.0,
        1.4901161193847656e-06,
        -5.9604644775390625e-06,
        1.0
      ],
      "name": "Cylinder"
    },
    {
      "mesh": 3,
      "name": "Cylinder_Mach 5 Wheel_0"
    },
    {
      "children": [
        12
      ],
      "matrix": [
        20.525775909423828,
        0.0,
        0.0,
        0.0,
        0.0,
        -20.5257759094236,
        -3.0993059355465846e-06,
        0.0,
        0.0,
        3.0993059355465846e-06,
        -20.5257759094236,
        0.0,
        0.0,
        1.4901161193847656e-06,
        -5.9604644775390625e-06,
        1.0
      ],
      "name": "Cylinder.001"
    },
    {
      "mesh": 4,
      "name": "Cylinder.001_Mach 5 Wheel_0"
    },
    {
      "children": [
        14
      ],
      "matrix": [
        7.589940071105957,
        0.0,
        0.0,
        0.0,
        0.0,
        5.730245334485742e-07,
        -7.589940071105935,
        0.0,
        0.0,
        7.589940071105935,
        5.730245334485742e-07,
        0.0,
        -2.384185791015625e-05,
        -7.450580596923828e-07,
        0.0,
        1.0
      ],
      "name": "Plane"
    },
    {
      "mesh": 5,
      "name": "Plane_Mach 5 body_0"
    },
    {
      "children": [
        16
      ],
      "matrix": [
        7.589940071105957,
        0.0,
        0.0,
        0.0,
        0.0,
        5.730245334485742e-07,
        -7.589940071105935,
        0.0,
        0.0,
        7.589940071105935,
        5.730245334485742e-07,
        0.0,
        -2.384185791015625e-05,
        -7.450580596923828e-07,
        0.0,
        1.0
      ],
      "name": "Plane.001"
    },
    {
      "mesh": 6,
      "name": "Plane.001_Mach 5 Glass_0"
    },
    {
      "children": [
        18
      ],
      "matrix": [
        7.589940071105957,
        0.0,
        0.0,
        0.0,
        0.0,
        5.730245334485742e-07,
        -7.589940071105935,
        0.0,
        0.0,
        7.589940071105935,
        5.730245334485742e-07,
        0.0,
        -2.384185791015625e-05,
        -7.450580596923828e-07,
        0.0,
        1.0
      ],
      "name": "Plane.002"
    },
    {
      "mesh": 7,
      "name": "Plane.002_Mach 5 Glass_0"
    }
  ],
  "samplers": [
    {
      "magFilter": 9729,
      "minFilter": 9987,
      "wrapS": 10497,
      "wrapT": 10497
    }
  ],
  "scene": 0,
  "scenes": [
    {
      "name": "Sketchfab_Scene",
      "nodes": [
        0
      ]
    }
  ],
  "textures": [
    {
      "sampler": 0,
      "source": 0
    },
    {
      "sampler": 0,
      "source": 1
    },
    {
      "sampler": 0,
      "source": 2
    },
    {
      "sampler": 0,
      "source": 3
    },
    {
      "sampler": 0,
      "source": 4
    },
    {
      "sampler": 0,
      "source": 5
    },
    {
      "sampler": 0,
      "source": 6
    },
    {
      "sampler": 0,
      "source": 7
    },
    {
      "sampler": 0,
      "source": 8
    },
    {
      "sampler": 0,
      "source": 9
    },
    {
      "sampler": 0,
      "source": 10
    },
    {
      "sampler": 0,
      "source": 11
    },
    {
      "sampler": 0,
      "source": 12
    }
  ]
}
