{
  "accessors": [
    {
      "bufferView": 2,
      "componentType": 5126,
      "count": 29072,
      "max": [
        13831.361328125,
        11979.5673828125,
        17241.447265625
      ],
      "min": [
        0.0,
        0.0,
        0.0
      ],
      "type": "VEC3"
    },
    {
      "bufferView": 2,
      "byteOffset": 348864,
      "componentType": 5126,
      "count": 29072,
      "max": [
        1.0,
        1.0,
        1.0
      ],
      "min": [
        -1.0,
        -1.0,
        -1.0
      ],
      "type": "VEC3"
    },
    {
      "bufferView": 3,
      "componentType": 5126,
      "count": 29072,
      "max": [
        1.0,
        1.0,
        1.0,
        1.0
      ],
      "min": [
        -1.0,
        -1.0,
        -1.0,
        -1.0
      ],
      "type": "VEC4"
    },
    {
      "bufferView": 1,
      "componentType": 5126,
      "count": 29072,
      "max": [
        0.9977999925613403,
        0.9977999925613403
      ],
      "min": [
        0.0005000000237487257,
        0.0005000000237487257
      ],
      "type": "VEC2"
    },
    {
      "bufferView": 0,
      "componentType": 5125,
      "count": 118428,
      "type": "SCALAR"
    },
    {
      "bufferView": 2,
      "byteOffset": 697728,
      "componentType": 5126,
      "count": 22333,
      "max": [
        13831.361328125,
        11979.5673828125,
        17241.447265625
      ],
      "min": [
        0.0,
        0.0,
        0.0
      ],
      "type": "VEC3"
    },
    {
      "bufferView": 2,
      "byteOffset": 965724,
      "componentType": 5126,
      "count": 22333,
      "max": [
        1.0,
        1.0,
        1.0
      ],
      "min": [
        -1.0,
        -1.0,
        -1.0
      ],
      "type": "VEC3"
    },
    {
      "bufferView": 3,
      "byteOffset": 465152,
      "componentType": 5126,
      "count": 22333,
      "max": [
        1.0,
        1.0,
        1.0,
        1.0
      ],
      "min": [
        -1.0,
        -1.0,
        -1.0,
        -1.0
      ],
      "type": "VEC4"
    },
    {
      "bufferView": 1,
      "byteOffset": 232576,
      "componentType": 5126,
      "count": 22333,
      "max": [
        0.9994999766349792,
        0.9966999888420105
      ],
      "min": [
        0.0005000000237487257,
        0.004600000102072954
      ],
      "type": "VEC2"
    },
    {
      "bufferView": 0,
      "byteOffset": 473712,
      "componentType": 5125,
      "count": 85038,
      "type": "SCALAR"
    },
    {
      "bufferView": 2,
      "byteOffset": 1233720,
      "componentType": 5126,
      "count": 13764,
      "max": [
        13831.361328125,
        11979.5673828125,
        17241.447265625
      ],
      "min": [
        0.0,
        0.0,
        965.93115234375
      ],
      "type": "VEC3"
    },
    {
      "bufferView": 2,
      "byteOffset": 1398888,
      "componentType": 5126,
      "count": 13764,
      "max": [
        1.0,
        1.0,
        1.0
      ],
      "min": [
        -1.0,
        -1.0,
        -1.0
      ],
      "type": "VEC3"
    },
    {
      "bufferView": 3,
      "byteOffset": 822480,
      "componentType": 5126,
      "count": 13764,
      "max": [
        1.0,
        1.0,
        1.0,
        1.0
      ],
      "min": [
        -1.0,
        -1.0,
        -1.0,
        -1.0
      ],
      "type": "VEC4"
    },
    {
      "bufferView": 1,
      "byteOffset": 411240,
      "componentType": 5126,
      "count": 13764,
      "max": [
        0.9969000220298767,
        0.9977999925613403
      ],
      "min": [
        0.004699999932199717,
        0.008700000122189522
      ],
      "type": "VEC2"
    },
    {
      "bufferView": 0,
      "byteOffset": 813864,
      "componentType": 5125,
      "count": 39336,
      "type": "SCALAR"
    },
    {
      "bufferView": 2,
      "byteOffset": 1564056,
      "componentType": 5126,
      "count": 2033,
      "max": [
        13831.361328125,
        11931.9755859375,
        11249.392578125
      ],
      "min": [
        0.0,
        0.0,
        1035.197265625
      ],
      "type": "VEC3"
    },
    {
      "bufferView": 2,
      "byteOffset": 1588452,
      "componentType": 5126,
      "count": 2033,
      "max": [
        1.0,
        0.9818711876869202,
        1.0
      ],
      "min": [
        -1.0,
        -0.8661556839942932,
        -1.0
      ],
      "type": "VEC3"
    },
    {
      "bufferView": 3,
      "byteOffset": 1042704,
      "componentType": 5126,
      "count": 2033,
      "max": [
        1.0,
        1.0,
        1.0,
        1.0
      ],
      "min": [
        -1.0,
        -1.0,
        -1.0,
        -1.0
      ],
      "type": "VEC4"
    },
    {
      "bufferView": 1,
      "byteOffset": 521352,
      "componentType": 5126,
      "count": 2033,
      "max": [
        0.9972000122070313,
        0.9962999820709229
      ],
      "min": [
        0.004699999932199717,
        0.04619999974966049
      ],
      "type": "VEC2"
    },
    {
      "bufferView": 0,
      "byteOffset": 971208,
      "componentType": 5125,
      "count": 4065,
      "type": "SCALAR"
    },
    {
      "bufferView": 2,
      "byteOffset": 1612848,
      "componentType": 5126,
      "count": 658,
      "max": [
        13807.3798828125,
        11895.4248046875,
        11244.2421875
      ],
      "min": [
        24.00146484375,
        20.52734375,
        1035.197265625
      ],
      "type": "VEC3"
    },
    {
      "bufferView": 2,
      "byteOffset": 1620744,
      "componentType": 5126,
      "count": 658,
      "max": [
        0.896441638469696,
        0.824077308177948,
        0.8539031744003296
      ],
      "min": [
        -0.8943923115730286,
        -0.824874222278595,
        -0.859916627407074
      ],
      "type": "VEC3"
    },
    {
      "bufferView": 3,
      "byteOffset": 1075232,
      "componentType": 5126,
      "count": 658,
      "max": [
        0.9958422780036926,
        0.9988425374031067,
        0.8990204334259033,
        1.0
      ],
      "min": [
        -0.9957496523857117,
        -0.9976851344108582,
        -0.9059023261070251,
        1.0
      ],
      "type": "VEC4"
    },
    {
      "bufferView": 1,
      "byteOffset": 537616,
      "componentType": 5126,
      "count": 658,
      "max": [
        0.9926000237464905,
        0.9962999820709229
      ],
      "min": [
        0.004699999932199717,
        0.04619999974966049
      ],
      "type": "VEC2"
    },
    {
      "bufferView": 0,
      "byteOffset": 987468,
      "componentType": 5125,
      "count": 1080,
      "type": "SCALAR"
    }
  ],
  "asset": {
    "extras": {
      "author": "experiment_studio (https://sketchfab.com/experiment_studio)",
      "license": "CC-BY-4.0 (http://creativecommons.org/licenses/by/4.0/)",
      "source": "https://sketchfab.com/3d-models/billboard00-street-kitbash-collection-b66e0cf58c8d4f86bc2acd24c61c2d0b",
      "title": "Billboard00 - Street Kitbash Collection"
    },
    "generator": "Sketchfab-12.59.0",
    "version": "2.0"
  },
  "bufferViews": [
    {
      "buffer": 0,
      "byteLength": 991788,
      "name": "floatBufferViews",
      "target": 34963
    },
    {
      "buffer": 0,
      "byteLength": 542880,
      "byteOffset": 991788,
      "byteStride": 8,
      "name": "floatBufferViews",
      "target": 34962
    },
    {
      "buffer": 0,
      "byteLength": 1628640,
      "byteOffset": 1534668,
      "byteStride": 12,
      "name": "floatBufferViews",
      "target": 34962
    },
    {
      "buffer": 0,
      "byteLength": 1085760,
      "byteOffset": 3163308,
      "byteStride": 16,
      "name": "floatBufferViews",
      "target": 34962
    }
  ],
  "buffers": [
    {
      "byteLength": 4249068,
      "uri": "scene.bin"
    }
  ],
  "images": [
    {
      "uri": "textures/Material__3_baseColor.png"
    },
    {
      "uri": "textures/Material__3_metallicRoughness.png"
    },
    {
      "uri": "textures/Material__3_normal.png"
    }
  ],
  "materials": [
    {
      "doubleSided": true,
      "name": "Material__3",
      "normalTexture": {
        "index": 2
      },
      "occlusionTexture": {
        "index": 1
      },
      "pbrMetallicRoughness": {
        "baseColorTexture": {
          "index": 0
        },
        "metallicRoughnessTexture": {
          "index": 1
        }
      }
    }
  ],
  "meshes": [
    {
      "name": "Object_0",
      "primitives": [
        {
          "attributes": {
            "NORMAL": 1,
            "POSITION": 0,
            "TANGENT": 2,
            "TEXCOORD_0": 3
          },
          "indices": 4,
          "material": 0,
          "mode": 4
        }
      ]
    },
    {
      "name": "Object_1",
      "primitives": [
        {
          "attributes": {
            "NORMAL": 6,
            "POSITION": 5,
            "TANGENT": 7,
            "TEXCOORD_0": 8
          },
          "indices": 9,
          "material": 0,
          "mode": 4
        }
      ]
    },
    {
      "name": "Object_2",
      "primitives": [
        {
          "attributes": {
            "NORMAL": 11,
            "POSITION": 10,
            "TANGENT": 12,
            "TEXCOORD_0": 13
          },
          "indices": 14,
          "material": 0,
          "mode": 4
        }
      ]
    },
    {
      "name": "Object_3",
      "primitives": [
        {
          "attributes": {
            "NORMAL": 16,
            "POSITION": 15,
            "TANGENT": 17,
            "TEXCOORD_0": 18
          },
          "indices": 19,
          "material": 0,
          "mode": 4
        }
      ]
    },
    {
      "name": "Object_4",
      "primitives": [
        {
          "attributes": {
            "NORMAL": 21,
            "POSITION": 20,
            "TANGENT": 22,
            "TEXCOORD_0": 23
          },
          "indices": 24,
          "material": 0,
          "mode": 4
        }
      ]
    }
  ],
  "nodes": [
    {
      "children": [
        1
      ],
      "matrix": [
        0.0004810112004633993,
        0.0,
        0.0,
        0.0,
        0.0,
        1.0680594197141053e-19,
        -0.0004810112004633993,
        0.0,
        0.0,
        0.0004810112004633993,
        1.0680594197141053e-19,
        0.0,
        0.0,
        0.0,
        0.0,
        1.0
      ],
      "name": "Sketchfab_model"
    },
    {
      "children": [
        2
      ],
      "matrix": [
        1.0,
        0.0,
        0.0,
        0.0,
        0.0,
        1.0,
        0.0,
        0.0,
        0.0,
        0.0,
        1.0,
        0.0,
        -6878.76171875,
        -5963.685546875,
        0.002899999963119626,
        1.0
      ],
      "name": "skfb_offset"
    },
    {
      "children": [
        3,
        4,
        5,
        6,
        7
      ],
      "name": "Object_2"
    },
    {
      "mesh": 0,
      "name": "Object_3"
    },
    {
      "mesh": 1,
      "name": "Object_4"
    },
    {
      "mesh": 2,
      "name": "Object_5"
    },
    {
      "mesh": 3,
      "name": "Object_6"
    },
    {
      "mesh": 4,
      "name": "Object_7"
    }
  ],
  "samplers": [
    {
      "magFilter": 9729,
      "minFilter": 9987,
      "wrapS": 10497,
      "wrapT": 10497
    }
  ],
  "scene": 0,
  "scenes": [
    {
      "name": "Sketchfab_Scene",
      "nodes": [
        0
      ]
    }
  ],
  "textures": [
    {
      "sampler": 0,
      "source": 0
    },
    {
      "sampler": 0,
      "source": 1
    },
    {
      "sampler": 0,
      "source": 2
    }
  ]
}
