{
  "accessors": [
    {
      "bufferView": 2,
      "componentType": 5126,
      "count": 65532,
      "max": [
        0.941694974899292,
        0.20999400317668915,
        0.4047980010509491
      ],
      "min": [
        -0.9517350196838379,
        -0.25599101185798645,
        -0.39607998728752136
      ],
      "type": "VEC3"
    },
    {
      "bufferView": 2,
      "byteOffset": 786384,
      "componentType": 5126,
      "count": 65532,
      "max": [
        0.999995231628418,
        1.0,
        1.0
      ],
      "min": [
        -0.9999992847442627,
        -1.0,
        -0.9999997615814209
      ],
      "type": "VEC3"
    },
    {
      "bufferView": 3,
      "componentType": 5126,
      "count": 65532,
      "max": [
        0.9999997019767761,
        0.9999980330467224,
        1.0,
        1.0
      ],
      "min": [
        -0.9999887347221375,
        -0.9999999403953552,
        -1.0,
        -1.0
      ],
      "type": "VEC4"
    },
    {
      "bufferView": 1,
      "componentType": 5126,
      "count": 65532,
      "max": [
        0.9963269829750061,
        1.0
      ],
      "min": [
        0.0,
        0.007878005504608154
      ],
      "type": "VEC2"
    },
    {
      "bufferView": 1,
      "byteOffset": 524256,
      "componentType": 5126,
      "count": 65532,
      "max": [
        0.9963269829750061,
        1.0
      ],
      "min": [
        0.0,
        0.007878005504608154
      ],
      "type": "VEC2"
    },
    {
      "bufferView": 1,
      "byteOffset": 1048512,
      "componentType": 5126,
      "count": 65532,
      "max": [
        0.9963269829750061,
        1.0
      ],
      "min": [
        0.0,
        0.007878005504608154
      ],
      "type": "VEC2"
    },
    {
      "bufferView": 1,
      "byteOffset": 1572768,
      "componentType": 5126,
      "count": 65532,
      "max": [
        0.9963269829750061,
        1.0
      ],
      "min": [
        0.0,
        0.007878005504608154
      ],
      "type": "VEC2"
    },
    {
      "bufferView": 0,
      "componentType": 5125,
      "count": 302427,
      "type": "SCALAR"
    },
    {
      "bufferView": 2,
      "byteOffset": 1572768,
      "componentType": 5126,
      "count": 65532,
      "max": [
        0.9413599967956543,
        0.24886399507522583,
        0.39452698826789856
      ],
      "min": [
        -0.9327319860458374,
        -0.25694599747657776,
        -0.40496501326560974
      ],
      "type": "VEC3"
    },
    {
      "bufferView": 2,
      "byteOffset": 2359152,
      "componentType": 5126,
      "count": 65532,
      "max": [
        0.9999691843986511,
        1.0,
        1.0
      ],
      "min": [
        -0.9999614953994751,
        -1.0,
        -0.9999985694885254
      ],
      "type": "VEC3"
    },
    {
      "bufferView": 3,
      "byteOffset": 1048512,
      "componentType": 5126,
      "count": 65532,
      "max": [
        0.9999988675117493,
        0.9999967217445374,
        1.0,
        1.0
      ],
      "min": [
        -0.9997292757034302,
        -0.9999876022338867,
        -1.0,
        -1.0
      ],
      "type": "VEC4"
    },
    {
      "bufferView": 1,
      "byteOffset": 2097024,
      "componentType": 5126,
      "count": 65532,
      "max": [
        0.9949100017547607,
        1.0
      ],
      "min": [
        0.0,
        0.008090972900390625
      ],
      "type": "VEC2"
    },
    {
      "bufferView": 1,
      "byteOffset": 2621280,
      "componentType": 5126,
      "count": 65532,
      "max": [
        0.9949100017547607,
        1.0
      ],
      "min": [
        0.0,
        0.008090972900390625
      ],
      "type": "VEC2"
    },
    {
      "bufferView": 1,
      "byteOffset": 3145536,
      "componentType": 5126,
      "count": 65532,
      "max": [
        0.9949100017547607,
        1.0
      ],
      "min": [
        0.0,
        0.008090972900390625
      ],
      "type": "VEC2"
    },
    {
      "bufferView": 1,
      "byteOffset": 3669792,
      "componentType": 5126,
      "count": 65532,
      "max": [
        0.9949100017547607,
        1.0
      ],
      "min": [
        0.0,
        0.008090972900390625
      ],
      "type": "VEC2"
    },
    {
      "bufferView": 0,
      "byteOffset": 1209708,
      "componentType": 5125,
      "count": 301677,
      "type": "SCALAR"
    },
    {
      "bufferView": 2,
      "byteOffset": 3145536,
      "componentType": 5126,
      "count": 65532,
      "max": [
        0.9483019709587097,
        0.23145799338817596,
        0.40391701459884644
      ],
      "min": [
        -0.8769429922103882,
        -0.25240299105644226,
        -0.4035769999027252
      ],
      "type": "VEC3"
    },
    {
      "bufferView": 2,
      "byteOffset": 3931920,
      "componentType": 5126,
      "count": 65532,
      "max": [
        0.9999969005584717,
        1.0,
        0.999998927116394
      ],
      "min": [
        -0.9999935626983643,
        -1.0,
        -0.9999994039535522
      ],
      "type": "VEC3"
    },
    {
      "bufferView": 3,
      "byteOffset": 2097024,
      "componentType": 5126,
      "count": 65532,
      "max": [
        0.9999983906745911,
        0.9999997615814209,
        0.9999998807907104,
        1.0
      ],
      "min": [
        -0.9999216794967651,
        -0.9999991059303284,
        -0.9999999403953552,
        -1.0
      ],
      "type": "VEC4"
    },
    {
      "bufferView": 1,
      "byteOffset": 4194048,
      "componentType": 5126,
      "count": 65532,
      "max": [
        0.9957590103149414,
        1.0
      ],
      "min": [
        -0.0,
        0.00816798210144043
      ],
      "type": "VEC2"
    },
    {
      "bufferView": 1,
      "byteOffset": 4718304,
      "componentType": 5126,
      "count": 65532,
      "max": [
        0.9957590103149414,
        1.0
      ],
      "min": [
        -0.0,
        0.00816798210144043
      ],
      "type": "VEC2"
    },
    {
      "bufferView": 1,
      "byteOffset": 5242560,
      "componentType": 5126,
      "count": 65532,
      "max": [
        0.9957590103149414,
        1.0
      ],
      "min": [
        -0.0,
        0.00816798210144043
      ],
      "type": "VEC2"
    },
    {
      "bufferView": 1,
      "byteOffset": 5766816,
      "componentType": 5126,
      "count": 65532,
      "max": [
        0.9957590103149414,
        1.0
      ],
      "min": [
        -0.0,
        0.00816798210144043
      ],
      "type": "VEC2"
    },
    {
      "bufferView": 0,
      "byteOffset": 2416416,
      "componentType": 5125,
      "count": 293340,
      "type": "SCALAR"
    },
    {
      "bufferView": 2,
      "byteOffset": 4718304,
      "componentType": 5126,
      "count": 65532,
      "max": [
        0.9483100175857544,
        0.2301419973373413,
        0.4014799892902374
      ],
      "min": [
        -0.9174619913101196,
        -0.2435619980096817,
        -0.40376099944114685
      ],
      "type": "VEC3"
    },
    {
      "bufferView": 2,
      "byteOffset": 5504688,
      "componentType": 5126,
      "count": 65532,
      "max": [
        0.9999998807907104,
        0.9999983906745911,
        0.999997615814209
      ],
      "min": [
        -0.9999935626983643,
        -0.9999998807907104,
        -1.0
      ],
      "type": "VEC3"
    },
    {
      "bufferView": 3,
      "byteOffset": 3145536,
      "componentType": 5126,
      "count": 65532,
      "max": [
        0.9999839067459106,
        1.0,
        0.9999993443489075,
        1.0
      ],
      "min": [
        -0.9973210692405701,
        -0.9999995827674866,
        -0.9999997615814209,
        -1.0
      ],
      "type": "VEC4"
    },
    {
      "bufferView": 1,
      "byteOffset": 6291072,
      "componentType": 5126,
      "count": 65532,
      "max": [
        0.9927870035171509,
        1.0
      ],
      "min": [
        0.0,
        0.007833003997802734
      ],
      "type": "VEC2"
    },
    {
      "bufferView": 1,
      "byteOffset": 6815328,
      "componentType": 5126,
      "count": 65532,
      "max": [
        0.9927870035171509,
        1.0
      ],
      "min": [
        0.0,
        0.007833003997802734
      ],
      "type": "VEC2"
    },
    {
      "bufferView": 1,
      "byteOffset": 7339584,
      "componentType": 5126,
      "count": 65532,
      "max": [
        0.9927870035171509,
        1.0
      ],
      "min": [
        0.0,
        0.007833003997802734
      ],
      "type": "VEC2"
    },
    {
      "bufferView": 1,
      "byteOffset": 7863840,
      "componentType": 5126,
      "count": 65532,
      "max": [
        0.9927870035171509,
        1.0
      ],
      "min": [
        0.0,
        0.007833003997802734
      ],
      "type": "VEC2"
    },
    {
      "bufferView": 0,
      "byteOffset": 3589776,
      "componentType": 5125,
      "count": 296277,
      "type": "SCALAR"
    },
    {
      "bufferView": 2,
      "byteOffset": 6291072,
      "componentType": 5126,
      "count": 65532,
      "max": [
        0.9420279860496521,
        0.22400300204753876,
        0.4033460021018982
      ],
      "min": [
        -0.8888030052185059,
        -0.2564370036125183,
        -0.40436801314353943
      ],
      "type": "VEC3"
    },
    {
      "bufferView": 2,
      "byteOffset": 7077456,
      "componentType": 5126,
      "count": 65532,
      "max": [
        0.9999906420707703,
        0.9999985694885254,
        0.9999997615814209
      ],
      "min": [
        -0.9999750852584839,
        -0.9999960660934448,
        -0.9999880790710449
      ],
      "type": "VEC3"
    },
    {
      "bufferView": 3,
      "byteOffset": 4194048,
      "componentType": 5126,
      "count": 65532,
      "max": [
        0.9999948740005493,
        0.999993622303009,
        0.999996542930603,
        1.0
      ],
      "min": [
        -0.9999669790267944,
        -0.9999992251396179,
        -0.9999995827674866,
        -1.0
      ],
      "type": "VEC4"
    },
    {
      "bufferView": 1,
      "byteOffset": 8388096,
      "componentType": 5126,
      "count": 65532,
      "max": [
        0.9964079856872559,
        0.9975720047950745
      ],
      "min": [
        0.006093000061810017,
        0.003489971160888672
      ],
      "type": "VEC2"
    },
    {
      "bufferView": 1,
      "byteOffset": 8912352,
      "componentType": 5126,
      "count": 65532,
      "max": [
        0.9964079856872559,
        0.9975720047950745
      ],
      "min": [
        0.006093000061810017,
        0.003489971160888672
      ],
      "type": "VEC2"
    },
    {
      "bufferView": 1,
      "byteOffset": 9436608,
      "componentType": 5126,
      "count": 65532,
      "max": [
        0.9964079856872559,
        0.9975720047950745
      ],
      "min": [
        0.006093000061810017,
        0.003489971160888672
      ],
      "type": "VEC2"
    },
    {
      "bufferView": 1,
      "byteOffset": 9960864,
      "componentType": 5126,
      "count": 65532,
      "max": [
        0.9964079856872559,
        0.9975720047950745
      ],
      "min": [
        0.006093000061810017,
        0.003489971160888672
      ],
      "type": "VEC2"
    },
    {
      "bufferView": 0,
      "byteOffset": 4774884,
      "componentType": 5125,
      "count": 284562,
      "type": "SCALAR"
    },
    {
      "bufferView": 2,
      "byteOffset": 7863840,
      "componentType": 5126,
      "count": 65532,
      "max": [
        0.9151099920272827,
        0.22644899785518646,
        0.3567250072956085
      ],
      "min": [
        -0.9202139973640442,
        -0.23304900527000427,
        -0.3547930121421814
      ],
      "type": "VEC3"
    },
    {
      "bufferView": 2,
      "byteOffset": 8650224,
      "componentType": 5126,
      "count": 65532,
      "max": [
        0.9999822378158569,
        1.0,
        0.9999973773956299
      ],
      "min": [
        -0.9999847412109375,
        -0.9999995231628418,
        -0.9999997615814209
      ],
      "type": "VEC3"
    },
    {
      "bufferView": 3,
      "byteOffset": 5242560,
      "componentType": 5126,
      "count": 65532,
      "max": [
        0.9999991655349731,
        0.9999999403953552,
        0.999997079372406,
        1.0
      ],
      "min": [
        -0.9998934268951416,
        -0.9999984502792358,
        -0.9999992251396179,
        -1.0
      ],
      "type": "VEC4"
    },
    {
      "bufferView": 1,
      "byteOffset": 10485120,
      "componentType": 5126,
      "count": 65532,
      "max": [
        0.9965019822120667,
        1.0
      ],
      "min": [
        0.00304200011305511,
        0.0033479928970336914
      ],
      "type": "VEC2"
    },
    {
      "bufferView": 1,
      "byteOffset": 11009376,
      "componentType": 5126,
      "count": 65532,
      "max": [
        0.9965019822120667,
        1.0
      ],
      "min": [
        0.00304200011305511,
        0.0033479928970336914
      ],
      "type": "VEC2"
    },
    {
      "bufferView": 1,
      "byteOffset": 11533632,
      "componentType": 5126,
      "count": 65532,
      "max": [
        0.9965019822120667,
        1.0
      ],
      "min": [
        0.00304200011305511,
        0.0033479928970336914
      ],
      "type": "VEC2"
    },
    {
      "bufferView": 1,
      "byteOffset": 12057888,
      "componentType": 5126,
      "count": 65532,
      "max": [
        0.9965019822120667,
        1.0
      ],
      "min": [
        0.00304200011305511,
        0.0033479928970336914
      ],
      "type": "VEC2"
    },
    {
      "bufferView": 0,
      "byteOffset": 5913132,
      "componentType": 5125,
      "count": 255423,
      "type": "SCALAR"
    },
    {
      "bufferView": 2,
      "byteOffset": 9436608,
      "componentType": 5126,
      "count": 65532,
      "max": [
        0.9110260009765625,
        0.13544900715351105,
        0.40478500723838806
      ],
      "min": [
        -0.8193359971046448,
        -0.24507899582386017,
        -0.4048050045967102
      ],
      "type": "VEC3"
    },
    {
      "bufferView": 2,
      "byteOffset": 10222992,
      "componentType": 5126,
      "count": 65532,
      "max": [
        0.999981164932251,
        0.9999955296516418,
        0.9999971389770508
      ],
      "min": [
        -0.9999988079071045,
        -0.9999696612358093,
        -0.9999966621398926
      ],
      "type": "VEC3"
    },
    {
      "bufferView": 3,
      "byteOffset": 6291072,
      "componentType": 5126,
      "count": 65532,
      "max": [
        0.99998539686203,
        0.9999901056289673,
        0.9999985694885254,
        1.0
      ],
      "min": [
        -0.9997743368148804,
        -0.9999999403953552,
        -0.9999986886978149,
        -1.0
      ],
      "type": "VEC4"
    },
    {
      "bufferView": 1,
      "byteOffset": 12582144,
      "componentType": 5126,
      "count": 65532,
      "max": [
        0.9964039921760559,
        1.0
      ],
      "min": [
        -0.0,
        0.0034779906272888184
      ],
      "type": "VEC2"
    },
    {
      "bufferView": 1,
      "byteOffset": 13106400,
      "componentType": 5126,
      "count": 65532,
      "max": [
        0.9964039921760559,
        1.0
      ],
      "min": [
        -0.0,
        0.0034779906272888184
      ],
      "type": "VEC2"
    },
    {
      "bufferView": 1,
      "byteOffset": 13630656,
      "componentType": 5126,
      "count": 65532,
      "max": [
        0.9964039921760559,
        1.0
      ],
      "min": [
        -0.0,
        0.0034779906272888184
      ],
      "type": "VEC2"
    },
    {
      "bufferView": 1,
      "byteOffset": 14154912,
      "componentType": 5126,
      "count": 65532,
      "max": [
        0.9964039921760559,
        1.0
      ],
      "min": [
        -0.0,
        0.0034779906272888184
      ],
      "type": "VEC2"
    },
    {
      "bufferView": 0,
      "byteOffset": 6934824,
      "componentType": 5125,
      "count": 268641,
      "type": "SCALAR"
    },
    {
      "bufferView": 2,
      "byteOffset": 11009376,
      "componentType": 5126,
      "count": 65532,
      "max": [
        0.9470310211181641,
        0.23148700594902039,
        0.4036479890346527
      ],
      "min": [
        -0.6768280267715454,
        -0.2552649974822998,
        0.1712770015001297
      ],
      "type": "VEC3"
    },
    {
      "bufferView": 2,
      "byteOffset": 11795760,
      "componentType": 5126,
      "count": 65532,
      "max": [
        0.9999680519104004,
        0.9999039173126221,
        0.9999575614929199
      ],
      "min": [
        -0.999998927116394,
        -0.9999130964279175,
        -0.9999918937683105
      ],
      "type": "VEC3"
    },
    {
      "bufferView": 3,
      "byteOffset": 7339584,
      "componentType": 5126,
      "count": 65532,
      "max": [
        0.999998152256012,
        0.9999944567680359,
        0.9999996423721313,
        1.0
      ],
      "min": [
        -0.999720573425293,
        -0.9999902248382568,
        -0.9999995827674866,
        -1.0
      ],
      "type": "VEC4"
    },
    {
      "bufferView": 1,
      "byteOffset": 14679168,
      "componentType": 5126,
      "count": 65532,
      "max": [
        0.9964820146560669,
        1.0
      ],
      "min": [
        0.0,
        0.0024039745330810547
      ],
      "type": "VEC2"
    },
    {
      "bufferView": 1,
      "byteOffset": 15203424,
      "componentType": 5126,
      "count": 65532,
      "max": [
        0.9964820146560669,
        1.0
      ],
      "min": [
        0.0,
        0.0024039745330810547
      ],
      "type": "VEC2"
    },
    {
      "bufferView": 1,
      "byteOffset": 15727680,
      "componentType": 5126,
      "count": 65532,
      "max": [
        0.9964820146560669,
        1.0
      ],
      "min": [
        0.0,
        0.0024039745330810547
      ],
      "type": "VEC2"
    },
    {
      "bufferView": 1,
      "byteOffset": 16251936,
      "componentType": 5126,
      "count": 65532,
      "max": [
        0.9964820146560669,
        1.0
      ],
      "min": [
        0.0,
        0.0024039745330810547
      ],
      "type": "VEC2"
    },
    {
      "bufferView": 0,
      "byteOffset": 8009388,
      "componentType": 5125,
      "count": 224211,
      "type": "SCALAR"
    },
    {
      "bufferView": 2,
      "byteOffset": 12582144,
      "componentType": 5126,
      "count": 65532,
      "max": [
        0.9342340230941772,
        0.22391599416732788,
        0.36251100897789
      ],
      "min": [
        -0.9094740152359009,
        -0.25553399324417114,
        -0.22880899906158447
      ],
      "type": "VEC3"
    },
    {
      "bufferView": 2,
      "byteOffset": 13368528,
      "componentType": 5126,
      "count": 65532,
      "max": [
        0.9999979138374329,
        0.9999991655349731,
        0.9999912977218628
      ],
      "min": [
        -0.9999911785125732,
        -1.0,
        -0.9999971389770508
      ],
      "type": "VEC3"
    },
    {
      "bufferView": 3,
      "byteOffset": 8388096,
      "componentType": 5126,
      "count": 65532,
      "max": [
        0.9999807476997375,
        0.9999995231628418,
        0.9999932646751404,
        1.0
      ],
      "min": [
        -0.9999886155128479,
        -0.9999986290931702,
        -0.9999992251396179,
        -1.0
      ],
      "type": "VEC4"
    },
    {
      "bufferView": 1,
      "byteOffset": 16776192,
      "componentType": 5126,
      "count": 65532,
      "max": [
        0.9964920282363892,
        1.0
      ],
      "min": [
        0.0,
        0.000841975212097168
      ],
      "type": "VEC2"
    },
    {
      "bufferView": 1,
      "byteOffset": 17300448,
      "componentType": 5126,
      "count": 65532,
      "max": [
        0.9964920282363892,
        1.0
      ],
      "min": [
        0.0,
        0.000841975212097168
      ],
      "type": "VEC2"
    },
    {
      "bufferView": 1,
      "byteOffset": 17824704,
      "componentType": 5126,
      "count": 65532,
      "max": [
        0.9964920282363892,
        1.0
      ],
      "min": [
        0.0,
        0.000841975212097168
      ],
      "type": "VEC2"
    },
    {
      "bufferView": 1,
      "byteOffset": 18348960,
      "componentType": 5126,
      "count": 65532,
      "max": [
        0.9964920282363892,
        1.0
      ],
      "min": [
        0.0,
        0.000841975212097168
      ],
      "type": "VEC2"
    },
    {
      "bufferView": 0,
      "byteOffset": 8906232,
      "componentType": 5125,
      "count": 184029,
      "type": "SCALAR"
    },
    {
      "bufferView": 2,
      "byteOffset": 14154912,
      "componentType": 5126,
      "count": 65532,
      "max": [
        0.9406030178070068,
        0.22802400588989258,
        0.2696239948272705
      ],
      "min": [
        -0.9519479870796204,
        -0.203125,
        -0.3976539969444275
      ],
      "type": "VEC3"
    },
    {
      "bufferView": 2,
      "byteOffset": 14941296,
      "componentType": 5126,
      "count": 65532,
      "max": [
        0.9999921321868896,
        0.9999996423721313,
        0.9999996423721313
      ],
      "min": [
        -0.9999940395355225,
        -0.9999998807907104,
        -0.9999997615814209
      ],
      "type": "VEC3"
    },
    {
      "bufferView": 3,
      "byteOffset": 9436608,
      "componentType": 5126,
      "count": 65532,
      "max": [
        0.9999995231628418,
        0.9999997615814209,
        0.9999993443489075,
        1.0
      ],
      "min": [
        -0.9998528957366943,
        -1.0,
        -0.999999463558197,
        -1.0
      ],
      "type": "VEC4"
    },
    {
      "bufferView": 1,
      "byteOffset": 18873216,
      "componentType": 5126,
      "count": 65532,
      "max": [
        0.9965010285377502,
        1.0
      ],
      "min": [
        0.0,
        4.500150680541992e-05
      ],
      "type": "VEC2"
    },
    {
      "bufferView": 1,
      "byteOffset": 19397472,
      "componentType": 5126,
      "count": 65532,
      "max": [
        0.9965010285377502,
        1.0
      ],
      "min": [
        0.0,
        4.500150680541992e-05
      ],
      "type": "VEC2"
    },
    {
      "bufferView": 1,
      "byteOffset": 19921728,
      "componentType": 5126,
      "count": 65532,
      "max": [
        0.9965010285377502,
        1.0
      ],
      "min": [
        0.0,
        4.500150680541992e-05
      ],
      "type": "VEC2"
    },
    {
      "bufferView": 1,
      "byteOffset": 20445984,
      "componentType": 5126,
      "count": 65532,
      "max": [
        0.9965010285377502,
        1.0
      ],
      "min": [
        0.0,
        4.500150680541992e-05
      ],
      "type": "VEC2"
    },
    {
      "bufferView": 0,
      "byteOffset": 9642348,
      "componentType": 5125,
      "count": 195651,
      "type": "SCALAR"
    },
    {
      "bufferView": 2,
      "byteOffset": 15727680,
      "componentType": 5126,
      "count": 65532,
      "max": [
        0.9383170008659363,
        0.2160079926252365,
        -0.1998479962348938
      ],
      "min": [
        -0.82914799451828,
        -0.25196701288223267,
        -0.39581501483917236
      ],
      "type": "VEC3"
    },
    {
      "bufferView": 2,
      "byteOffset": 16514064,
      "componentType": 5126,
      "count": 65532,
      "max": [
        0.9999904632568359,
        0.9999958276748657,
        0.9999866485595703
      ],
      "min": [
        -0.9999780058860779,
        -0.9999451637268066,
        -0.9999517202377319
      ],
      "type": "VEC3"
    },
    {
      "bufferView": 3,
      "byteOffset": 10485120,
      "componentType": 5126,
      "count": 65532,
      "max": [
        0.9999858736991882,
        0.9999979138374329,
        0.9999840259552002,
        1.0
      ],
      "min": [
        -0.9999796748161316,
        -0.9999608397483826,
        -0.9999992847442627,
        -1.0
      ],
      "type": "VEC4"
    },
    {
      "bufferView": 1,
      "byteOffset": 20970240,
      "componentType": 5126,
      "count": 65532,
      "max": [
        0.9964990019798279,
        1.0
      ],
      "min": [
        0.0007210000185295939,
        0.002592027187347412
      ],
      "type": "VEC2"
    },
    {
      "bufferView": 1,
      "byteOffset": 21494496,
      "componentType": 5126,
      "count": 65532,
      "max": [
        0.9964990019798279,
        1.0
      ],
      "min": [
        0.0007210000185295939,
        0.002592027187347412
      ],
      "type": "VEC2"
    },
    {
      "bufferView": 1,
      "byteOffset": 22018752,
      "componentType": 5126,
      "count": 65532,
      "max": [
        0.9964990019798279,
        1.0
      ],
      "min": [
        0.0007210000185295939,
        0.002592027187347412
      ],
      "type": "VEC2"
    },
    {
      "bufferView": 1,
      "byteOffset": 22543008,
      "componentType": 5126,
      "count": 65532,
      "max": [
        0.9964990019798279,
        1.0
      ],
      "min": [
        0.0007210000185295939,
        0.002592027187347412
      ],
      "type": "VEC2"
    },
    {
      "bufferView": 0,
      "byteOffset": 10424952,
      "componentType": 5125,
      "count": 195948,
      "type": "SCALAR"
    },
    {
      "bufferView": 2,
      "byteOffset": 17300448,
      "componentType": 5126,
      "count": 65532,
      "max": [
        0.9485470056533813,
        0.23010499775409698,
        -0.24287399649620056
      ],
      "min": [
        -0.7968170046806335,
        -0.25599101185798645,
        -0.4023419916629791
      ],
      "type": "VEC3"
    },
    {
      "bufferView": 2,
      "byteOffset": 18086832,
      "componentType": 5126,
      "count": 65532,
      "max": [
        0.9999998807907104,
        0.9999548196792603,
        0.999995231628418
      ],
      "min": [
        -0.9999761581420898,
        -0.9999728202819824,
        -0.9999940991401672
      ],
      "type": "VEC3"
    },
    {
      "bufferView": 3,
      "byteOffset": 11533632,
      "componentType": 5126,
      "count": 65532,
      "max": [
        0.9999957084655762,
        1.0,
        0.9999987483024597,
        1.0
      ],
      "min": [
        -0.9999796748161316,
        -0.9999343156814575,
        -0.9999993443489075,
        -1.0
      ],
      "type": "VEC4"
    },
    {
      "bufferView": 1,
      "byteOffset": 23067264,
      "componentType": 5126,
      "count": 65532,
      "max": [
        0.9965019822120667,
        1.0
      ],
      "min": [
        0.000526999996509403,
        0.0020670294761657715
      ],
      "type": "VEC2"
    },
    {
      "bufferView": 1,
      "byteOffset": 23591520,
      "componentType": 5126,
      "count": 65532,
      "max": [
        0.9965019822120667,
        1.0
      ],
      "min": [
        0.000526999996509403,
        0.0020670294761657715
      ],
      "type": "VEC2"
    },
    {
      "bufferView": 1,
      "byteOffset": 24115776,
      "componentType": 5126,
      "count": 65532,
      "max": [
        0.9965019822120667,
        1.0
      ],
      "min": [
        0.000526999996509403,
        0.0020670294761657715
      ],
      "type": "VEC2"
    },
    {
      "bufferView": 1,
      "byteOffset": 24640032,
      "componentType": 5126,
      "count": 65532,
      "max": [
        0.9965019822120667,
        1.0
      ],
      "min": [
        0.000526999996509403,
        0.0020670294761657715
      ],
      "type": "VEC2"
    },
    {
      "bufferView": 0,
      "byteOffset": 11208744,
      "componentType": 5125,
      "count": 183804,
      "type": "SCALAR"
    },
    {
      "bufferView": 2,
      "byteOffset": 18873216,
      "componentType": 5126,
      "count": 65533,
      "max": [
        0.9346259832382202,
        0.21584700047969818,
        -0.2815769910812378
      ],
      "min": [
        -0.7510719895362854,
        -0.2551940083503723,
        -0.4044179916381836
      ],
      "type": "VEC3"
    },
    {
      "bufferView": 2,
      "byteOffset": 19659612,
      "componentType": 5126,
      "count": 65533,
      "max": [
        0.9999740123748779,
        0.9999428987503052,
        0.99998939037323
      ],
      "min": [
        -0.9999597072601318,
        -0.999987006187439,
        -0.9999830722808838
      ],
      "type": "VEC3"
    },
    {
      "bufferView": 3,
      "byteOffset": 12582144,
      "componentType": 5126,
      "count": 65533,
      "max": [
        0.9998515248298645,
        0.9999938607215881,
        0.9999824166297913,
        1.0
      ],
      "min": [
        -0.9999583959579468,
        -0.9999768137931824,
        -0.9999989867210388,
        -1.0
      ],
      "type": "VEC4"
    },
    {
      "bufferView": 1,
      "byteOffset": 25164288,
      "componentType": 5126,
      "count": 65533,
      "max": [
        0.9965029954910278,
        1.0
      ],
      "min": [
        1.8999999156221747e-05,
        0.002031981945037842
      ],
      "type": "VEC2"
    },
    {
      "bufferView": 1,
      "byteOffset": 25688552,
      "componentType": 5126,
      "count": 65533,
      "max": [
        0.9965029954910278,
        1.0
      ],
      "min": [
        1.8999999156221747e-05,
        0.002031981945037842
      ],
      "type": "VEC2"
    },
    {
      "bufferView": 1,
      "byteOffset": 26212816,
      "componentType": 5126,
      "count": 65533,
      "max": [
        0.9965029954910278,
        1.0
      ],
      "min": [
        1.8999999156221747e-05,
        0.002031981945037842
      ],
      "type": "VEC2"
    },
    {
      "bufferView": 1,
      "byteOffset": 26737080,
      "componentType": 5126,
      "count": 65533,
      "max": [
        0.9965029954910278,
        1.0
      ],
      "min": [
        1.8999999156221747e-05,
        0.002031981945037842
      ],
      "type": "VEC2"
    },
    {
      "bufferView": 0,
      "byteOffset": 11943960,
      "componentType": 5125,
      "count": 163683,
      "type": "SCALAR"
    },
    {
      "bufferView": 2,
      "byteOffset": 20446008,
      "componentType": 5126,
      "count": 65532,
      "max": [
        0.9461590051651001,
        0.25634899735450745,
        0.16601599752902985
      ],
      "min": [
        -0.9460819959640503,
        -0.2548980116844177,
        -0.3158389925956726
      ],
      "type": "VEC3"
    },
    {
      "bufferView": 2,
      "byteOffset": 21232392,
      "componentType": 5126,
      "count": 65532,
      "max": [
        0.9999823570251465,
        1.0,
        0.9999808073043823
      ],
      "min": [
        -0.9999977946281433,
        -1.0,
        -0.9999996423721313
      ],
      "type": "VEC3"
    },
    {
      "bufferView": 3,
      "byteOffset": 13630672,
      "componentType": 5126,
      "count": 65532,
      "max": [
        0.9999934434890747,
        0.9999996423721313,
        0.999998152256012,
        1.0
      ],
      "min": [
        -0.9999635219573975,
        -0.9999992251396179,
        -0.9999998211860657,
        -1.0
      ],
      "type": "VEC4"
    },
    {
      "bufferView": 1,
      "byteOffset": 27261344,
      "componentType": 5126,
      "count": 65532,
      "max": [
        0.9965069890022278,
        1.0
      ],
      "min": [
        -0.0,
        0.002753019332885742
      ],
      "type": "VEC2"
    },
    {
      "bufferView": 1,
      "byteOffset": 27785600,
      "componentType": 5126,
      "count": 65532,
      "max": [
        0.9965069890022278,
        1.0
      ],
      "min": [
        -0.0,
        0.002753019332885742
      ],
      "type": "VEC2"
    },
    {
      "bufferView": 1,
      "byteOffset": 28309856,
      "componentType": 5126,
      "count": 65532,
      "max": [
        0.9965069890022278,
        1.0
      ],
      "min": [
        -0.0,
        0.002753019332885742
      ],
      "type": "VEC2"
    },
    {
      "bufferView": 1,
      "byteOffset": 28834112,
      "componentType": 5126,
      "count": 65532,
      "max": [
        0.9965069890022278,
        1.0
      ],
      "min": [
        -0.0,
        0.002753019332885742
      ],
      "type": "VEC2"
    },
    {
      "bufferView": 0,
      "byteOffset": 12598692,
      "componentType": 5125,
      "count": 177054,
      "type": "SCALAR"
    },
    {
      "bufferView": 2,
      "byteOffset": 22018776,
      "componentType": 5126,
      "count": 65532,
      "max": [
        0.9417709708213806,
        0.2554979920387268,
        0.3115229904651642
      ],
      "min": [
        -0.9517989754676819,
        -0.18308000266551971,
        -0.03759799897670746
      ],
      "type": "VEC3"
    },
    {
      "bufferView": 2,
      "byteOffset": 22805160,
      "componentType": 5126,
      "count": 65532,
      "max": [
        0.9999858140945435,
        0.9999996423721313,
        0.9999961853027344
      ],
      "min": [
        -0.9999997615814209,
        -1.0,
        -0.9999654293060303
      ],
      "type": "VEC3"
    },
    {
      "bufferView": 3,
      "byteOffset": 14679184,
      "componentType": 5126,
      "count": 65532,
      "max": [
        0.9999991655349731,
        0.9999977350234985,
        0.9999996423721313,
        1.0
      ],
      "min": [
        -0.9998283386230469,
        -0.999991238117218,
        -1.0,
        -1.0
      ],
      "type": "VEC4"
    },
    {
      "bufferView": 1,
      "byteOffset": 29358368,
      "componentType": 5126,
      "count": 65532,
      "max": [
        0.9965069890022278,
        1.0
      ],
      "min": [
        0.0,
        0.00039899349212646484
      ],
      "type": "VEC2"
    },
    {
      "bufferView": 1,
      "byteOffset": 29882624,
      "componentType": 5126,
      "count": 65532,
      "max": [
        0.9965069890022278,
        1.0
      ],
      "min": [
        0.0,
        0.00039899349212646484
      ],
      "type": "VEC2"
    },
    {
      "bufferView": 1,
      "byteOffset": 30406880,
      "componentType": 5126,
      "count": 65532,
      "max": [
        0.9965069890022278,
        1.0
      ],
      "min": [
        0.0,
        0.00039899349212646484
      ],
      "type": "VEC2"
    },
    {
      "bufferView": 1,
      "byteOffset": 30931136,
      "componentType": 5126,
      "count": 65532,
      "max": [
        0.9965069890022278,
        1.0
      ],
      "min": [
        0.0,
        0.00039899349212646484
      ],
      "type": "VEC2"
    },
    {
      "bufferView": 0,
      "byteOffset": 13306908,
      "componentType": 5125,
      "count": 183552,
      "type": "SCALAR"
    },
    {
      "bufferView": 2,
      "byteOffset": 23591544,
      "componentType": 5126,
      "count": 65533,
      "max": [
        0.9413380026817322,
        0.22804200649261475,
        0.29762598872184753
      ],
      "min": [
        -0.9047639966011047,
        -0.23169000446796417,
        0.09105300158262253
      ],
      "type": "VEC3"
    },
    {
      "bufferView": 2,
      "byteOffset": 24377940,
      "componentType": 5126,
      "count": 65533,
      "max": [
        0.9999822378158569,
        0.9999984502792358,
        0.9999995231628418
      ],
      "min": [
        -0.9999778270721436,
        -0.9999992847442627,
        -0.9999982118606567
      ],
      "type": "VEC3"
    },
    {
      "bufferView": 3,
      "byteOffset": 15727696,
      "componentType": 5126,
      "count": 65533,
      "max": [
        1.0,
        0.9999977946281433,
        0.9999989867210388,
        1.0
      ],
      "min": [
        -0.999954104423523,
        -0.9999901652336121,
        -0.9999993443489075,
        -1.0
      ],
      "type": "VEC4"
    },
    {
      "bufferView": 1,
      "byteOffset": 31455392,
      "componentType": 5126,
      "count": 65533,
      "max": [
        0.9965029954910278,
        1.0
      ],
      "min": [
        -0.0,
        0.0014910101890563965
      ],
      "type": "VEC2"
    },
    {
      "bufferView": 1,
      "byteOffset": 31979656,
      "componentType": 5126,
      "count": 65533,
      "max": [
        0.9965029954910278,
        1.0
      ],
      "min": [
        -0.0,
        0.0014910101890563965
      ],
      "type": "VEC2"
    },
    {
      "bufferView": 1,
      "byteOffset": 32503920,
      "componentType": 5126,
      "count": 65533,
      "max": [
        0.9965029954910278,
        1.0
      ],
      "min": [
        -0.0,
        0.0014910101890563965
      ],
      "type": "VEC2"
    },
    {
      "bufferView": 1,
      "byteOffset": 33028184,
      "componentType": 5126,
      "count": 65533,
      "max": [
        0.9965029954910278,
        1.0
      ],
      "min": [
        -0.0,
        0.0014910101890563965
      ],
      "type": "VEC2"
    },
    {
      "bufferView": 0,
      "byteOffset": 14041116,
      "componentType": 5125,
      "count": 176487,
      "type": "SCALAR"
    },
    {
      "bufferView": 2,
      "byteOffset": 25164336,
      "componentType": 5126,
      "count": 65534,
      "max": [
        0.9488769769668579,
        0.2300180047750473,
        0.3095700144767761
      ],
      "min": [
        -0.8298439979553223,
        -0.25152701139450073,
        0.21581999957561493
      ],
      "type": "VEC3"
    },
    {
      "bufferView": 2,
      "byteOffset": 25950744,
      "componentType": 5126,
      "count": 65534,
      "max": [
        0.9998871088027954,
        0.9999785423278809,
        0.9999691247940063
      ],
      "min": [
        -0.9999499320983887,
        -0.9999961853027344,
        -0.9999421834945679
      ],
      "type": "VEC3"
    },
    {
      "bufferView": 3,
      "byteOffset": 16776224,
      "componentType": 5126,
      "count": 65534,
      "max": [
        0.9999980926513672,
        0.9999917149543762,
        0.9999977946281433,
        1.0
      ],
      "min": [
        -0.9998930096626282,
        -0.9999945163726807,
        -0.9999957084655762,
        -1.0
      ],
      "type": "VEC4"
    },
    {
      "bufferView": 1,
      "byteOffset": 33552448,
      "componentType": 5126,
      "count": 65534,
      "max": [
        0.996504008769989,
        1.0
      ],
      "min": [
        0.00047900000936351717,
        0.001824021339416504
      ],
      "type": "VEC2"
    },
    {
      "bufferView": 1,
      "byteOffset": 34076720,
      "componentType": 5126,
      "count": 65534,
      "max": [
        0.996504008769989,
        1.0
      ],
      "min": [
        0.00047900000936351717,
        0.001824021339416504
      ],
      "type": "VEC2"
    },
    {
      "bufferView": 1,
      "byteOffset": 34600992,
      "componentType": 5126,
      "count": 65534,
      "max": [
        0.996504008769989,
        1.0
      ],
      "min": [
        0.00047900000936351717,
        0.001824021339416504
      ],
      "type": "VEC2"
    },
    {
      "bufferView": 1,
      "byteOffset": 35125264,
      "componentType": 5126,
      "count": 65534,
      "max": [
        0.996504008769989,
        1.0
      ],
      "min": [
        0.00047900000936351717,
        0.001824021339416504
      ],
      "type": "VEC2"
    },
    {
      "bufferView": 0,
      "byteOffset": 14747064,
      "componentType": 5125,
      "count": 159288,
      "type": "SCALAR"
    },
    {
      "bufferView": 2,
      "byteOffset": 26737152,
      "componentType": 5126,
      "count": 9714,
      "max": [
        0.9483019709587097,
        0.2290329933166504,
        0.3115229904651642
      ],
      "min": [
        -0.7719460129737854,
        -0.25478899478912354,
        0.26319000124931335
      ],
      "type": "VEC3"
    },
    {
      "bufferView": 2,
      "byteOffset": 26853720,
      "componentType": 5126,
      "count": 9714,
      "max": [
        0.9993686079978943,
        0.9998137354850769,
        0.9999024868011475
      ],
      "min": [
        -0.9996291995048523,
        -0.9999680519104004,
        -0.9997797608375549
      ],
      "type": "VEC3"
    },
    {
      "bufferView": 3,
      "byteOffset": 17824768,
      "componentType": 5126,
      "count": 9714,
      "max": [
        0.9997526407241821,
        0.9999556541442871,
        0.9999964237213135,
        1.0
      ],
      "min": [
        -0.999870777130127,
        -0.9999799728393555,
        -0.9999973773956299,
        -1.0
      ],
      "type": "VEC4"
    },
    {
      "bufferView": 1,
      "byteOffset": 35649536,
      "componentType": 5126,
      "count": 9714,
      "max": [
        0.9964650273323059,
        1.0
      ],
      "min": [
        0.0003699999942909926,
        0.0
      ],
      "type": "VEC2"
    },
    {
      "bufferView": 1,
      "byteOffset": 35727248,
      "componentType": 5126,
      "count": 9714,
      "max": [
        0.9964650273323059,
        1.0
      ],
      "min": [
        0.0003699999942909926,
        0.0
      ],
      "type": "VEC2"
    },
    {
      "bufferView": 1,
      "byteOffset": 35804960,
      "componentType": 5126,
      "count": 9714,
      "max": [
        0.9964650273323059,
        1.0
      ],
      "min": [
        0.0003699999942909926,
        0.0
      ],
      "type": "VEC2"
    },
    {
      "bufferView": 1,
      "byteOffset": 35882672,
      "componentType": 5126,
      "count": 9714,
      "max": [
        0.9964650273323059,
        1.0
      ],
      "min": [
        0.0003699999942909926,
        0.0
      ],
      "type": "VEC2"
    },
    {
      "bufferView": 0,
      "byteOffset": 15384216,
      "componentType": 5125,
      "count": 18216,
      "type": "SCALAR"
    }
  ],
  "asset": {
    "extras": {
      "author": "S.York-designs (https://sketchfab.com/sebastianyorkdesigns)",
      "license": "CC-BY-4.0 (http://creativecommons.org/licenses/by/4.0/)",
      "source": "https://sketchfab.com/3d-models/shooting-star-speed-racer-dce4fa8ffeef44259a1bfd4f8ef3ac1c",
      "title": "Shooting Star - Speed Racer"
    },
    "generator": "Sketchfab-16.82.0",
    "version": "2.0"
  },
  "bufferViews": [
    {
      "buffer": 0,
      "byteLength": 15457080,
      "name": "floatBufferViews",
      "target": 34963
    },
    {
      "buffer": 0,
      "byteLength": 35960384,
      "byteOffset": 15457080,
      "byteStride": 8,
      "name": "floatBufferViews",
      "target": 34962
    },
    {
      "buffer": 0,
      "byteLength": 26970288,
      "byteOffset": 51417464,
      "byteStride": 12,
      "name": "floatBufferViews",
      "target": 34962
    },
    {
      "buffer": 0,
      "byteLength": 17980192,
      "byteOffset": 78387752,
      "byteStride": 16,
      "name": "floatBufferViews",
      "target": 34962
    }
  ],
  "buffers": [
    {
      "byteLength": 96367944,
      "uri": "scene.bin"
    }
  ],
  "images": [
    {
      "uri": "textures/material_0_baseColor.jpeg"
    },
    {
      "uri": "textures/material_0_metallicRoughness.png"
    },
    {
      "uri": "textures/material_0_normal.jpeg"
    }
  ],
  "materials": [
    {
      "doubleSided": true,
      "name": "material_0",
      "normalTexture": {
        "index": 2,
        "texCoord": 2
      },
      "pbrMetallicRoughness": {
        "baseColorTexture": {
          "index": 0
        },
        "metallicRoughnessTexture": {
          "index": 1,
          "texCoord": 1
        }
      }
    }
  ],
  "meshes": [
    {
      "name": "Object_0",
      "primitives": [
        {
          "attributes": {
            "NORMAL": 1,
            "POSITION": 0,
            "TANGENT": 2,
            "TEXCOORD_0": 3,
            "TEXCOORD_1": 4,
            "TEXCOORD_2": 5,
            "TEXCOORD_3": 6
          },
          "indices": 7,
          "material": 0,
          "mode": 4
        }
      ]
    },
    {
      "name": "Object_1",
      "primitives": [
        {
          "attributes": {
            "NORMAL": 9,
            "POSITION": 8,
            "TANGENT": 10,
            "TEXCOORD_0": 11,
            "TEXCOORD_1": 12,
            "TEXCOORD_2": 13,
            "TEXCOORD_3": 14
          },
          "indices": 15,
          "material": 0,
          "mode": 4
        }
      ]
    },
    {
      "name": "Object_2",
      "primitives": [
        {
          "attributes": {
            "NORMAL": 17,
            "POSITION": 16,
            "TANGENT": 18,
            "TEXCOORD_0": 19,
            "TEXCOORD_1": 20,
            "TEXCOORD_2": 21,
            "TEXCOORD_3": 22
          },
          "indices": 23,
          "material": 0,
          "mode": 4
        }
      ]
    },
    {
      "name": "Object_3",
      "primitives": [
        {
          "attributes": {
            "NORMAL": 25,
            "POSITION": 24,
            "TANGENT": 26,
            "TEXCOORD_0": 27,
            "TEXCOORD_1": 28,
            "TEXCOORD_2": 29,
            "TEXCOORD_3": 30
          },
          "indices": 31,
          "material": 0,
          "mode": 4
        }
      ]
    },
    {
      "name": "Object_4",
      "primitives": [
        {
          "attributes": {
            "NORMAL": 33,
            "POSITION": 32,
            "TANGENT": 34,
            "TEXCOORD_0": 35,
            "TEXCOORD_1": 36,
            "TEXCOORD_2": 37,
            "TEXCOORD_3": 38
          },
          "indices": 39,
          "material": 0,
          "mode": 4
        }
      ]
    },
    {
      "name": "Object_5",
      "primitives": [
        {
          "attributes": {
            "NORMAL": 41,
            "POSITION": 40,
            "TANGENT": 42,
            "TEXCOORD_0": 43,
            "TEXCOORD_1": 44,
            "TEXCOORD_2": 45,
            "TEXCOORD_3": 46
          },
          "indices": 47,
          "material": 0,
          "mode": 4
        }
      ]
    },
    {
      "name": "Object_6",
      "primitives": [
        {
          "attributes": {
            "NORMAL": 49,
            "POSITION": 48,
            "TANGENT": 50,
            "TEXCOORD_0": 51,
            "TEXCOORD_1": 52,
            "TEXCOORD_2": 53,
            "TEXCOORD_3": 54
          },
          "indices": 55,
          "material": 0,
          "mode": 4
        }
      ]
    },
    {
      "name": "Object_7",
      "primitives": [
        {
          "attributes": {
            "NORMAL": 57,
            "POSITION": 56,
            "TANGENT": 58,
            "TEXCOORD_0": 59,
            "TEXCOORD_1": 60,
            "TEXCOORD_2": 61,
            "TEXCOORD_3": 62
          },
          "indices": 63,
          "material": 0,
          "mode": 4
        }
      ]
    },
    {
      "name": "Object_8",
      "primitives": [
        {
          "attributes": {
            "NORMAL": 65,
            "POSITION": 64,
            "TANGENT": 66,
            "TEXCOORD_0": 67,
            "TEXCOORD_1": 68,
            "TEXCOORD_2": 69,
            "TEXCOORD_3": 70
          },
          "indices": 71,
          "material": 0,
          "mode": 4
        }
      ]
    },
    {
      "name": "Object_9",
      "primitives": [
        {
          "attributes": {
            "NORMAL": 73,
            "POSITION": 72,
            "TANGENT": 74,
            "TEXCOORD_0": 75,
            "TEXCOORD_1": 76,
            "TEXCOORD_2": 77,
            "TEXCOORD_3": 78
          },
          "indices": 79,
          "material": 0,
          "mode": 4
        }
      ]
    },
    {
      "name": "Object_10",
      "primitives": [
        {
          "attributes": {
            "NORMAL": 81,
            "POSITION": 80,
            "TANGENT": 82,
            "TEXCOORD_0": 83,
            "TEXCOORD_1": 84,
            "TEXCOORD_2": 85,
            "TEXCOORD_3": 86
          },
          "indices": 87,
          "material": 0,
          "mode": 4
        }
      ]
    },
    {
      "name": "Object_11",
      "primitives": [
        {
          "attributes": {
            "NORMAL": 89,
            "POSITION": 88,
            "TANGENT": 90,
            "TEXCOORD_0": 91,
            "TEXCOORD_1": 92,
            "TEXCOORD_2": 93,
            "TEXCOORD_3": 94
          },
          "indices": 95,
          "material": 0,
          "mode": 4
        }
      ]
    },
    {
      "name": "Object_12",
      "primitives": [
        {
          "attributes": {
            "NORMAL": 97,
            "POSITION": 96,
            "TANGENT": 98,
            "TEXCOORD_0": 99,
            "TEXCOORD_1": 100,
            "TEXCOORD_2": 101,
            "TEXCOORD_3": 102
          },
          "indices": 103,
          "material": 0,
          "mode": 4
        }
      ]
    },
    {
      "name": "Object_13",
      "primitives": [
        {
          "attributes": {
            "NORMAL": 105,
            "POSITION": 104,
            "TANGENT": 106,
            "TEXCOORD_0": 107,
            "TEXCOORD_1": 108,
            "TEXCOORD_2": 109,
            "TEXCOORD_3": 110
          },
          "indices": 111,
          "material": 0,
          "mode": 4
        }
      ]
    },
    {
      "name": "Object_14",
      "primitives": [
        {
          "attributes": {
            "NORMAL": 113,
            "POSITION": 112,
            "TANGENT": 114,
            "TEXCOORD_0": 115,
            "TEXCOORD_1": 116,
            "TEXCOORD_2": 117,
            "TEXCOORD_3": 118
          },
          "indices": 119,
          "material": 0,
          "mode": 4
        }
      ]
    },
    {
      "name": "Object_15",
      "primitives": [
        {
          "attributes": {
            "NORMAL": 121,
            "POSITION": 120,
            "TANGENT": 122,
            "TEXCOORD_0": 123,
            "TEXCOORD_1": 124,
            "TEXCOORD_2": 125,
            "TEXCOORD_3": 126
          },
          "indices": 127,
          "material": 0,
          "mode": 4
        }
      ]
    },
    {
      "name": "Object_16",
      "primitives": [
        {
          "attributes": {
            "NORMAL": 129,
            "POSITION": 128,
            "TANGENT": 130,
            "TEXCOORD_0": 131,
            "TEXCOORD_1": 132,
            "TEXCOORD_2": 133,
            "TEXCOORD_3": 134
          },
          "indices": 135,
          "material": 0,
          "mode": 4
        }
      ]
    },
    {
      "name": "Object_17",
      "primitives": [
        {
          "attributes": {
            "NORMAL": 137,
            "POSITION": 136,
            "TANGENT": 138,
            "TEXCOORD_0": 139,
            "TEXCOORD_1": 140,
            "TEXCOORD_2": 141,
            "TEXCOORD_3": 142
          },
          "indices": 143,
          "material": 0,
          "mode": 4
        }
      ]
    }
  ],
  "nodes": [
    {
      "children": [
        1
      ],
      "matrix": [
        1.0,
        0.0,
        0.0,
        0.0,
        0.0,
        2.220446049250313e-16,
        -1.0,
        0.0,
        0.0,
        1.0,
        2.220446049250313e-16,
        0.0,
        0.0,
        0.0,
        0.0,
        1.0
      ],
      "name": "Sketchfab_model"
    },
    {
      "children": [
        2
      ],
      "name": "root"
    },
    {
      "children": [
        3
      ],
      "matrix": [
        1.0,
        0.0,
        0.0,
        0.0,
        0.0,
        2.220446049250313e-16,
        1.0,
        0.0,
        0.0,
        -1.0,
        2.220446049250313e-16,
        0.0,
        0.0,
        0.0,
        0.0,
        1.0
      ],
      "name": "GLTF_SceneRootNode"
    },
    {
      "children": [
        4,
        5,
        6,
        7,
        8,
        9,
        10,
        11,
        12,
        13,
        14,
        15,
        16,
        17,
        18,
        19,
        20,
        21
      ],
      "name": "_0"
    },
    {
      "mesh": 0,
      "name": "Object_4"
    },
    {
      "mesh": 1,
      "name": "Object_5"
    },
    {
      "mesh": 2,
      "name": "Object_6"
    },
    {
      "mesh": 3,
      "name": "Object_7"
    },
    {
      "mesh": 4,
      "name": "Object_8"
    },
    {
      "mesh": 5,
      "name": "Object_9"
    },
    {
      "mesh": 6,
      "name": "Object_10"
    },
    {
      "mesh": 7,
      "name": "Object_11"
    },
    {
      "mesh": 8,
      "name": "Object_12"
    },
    {
      "mesh": 9,
      "name": "Object_13"
    },
    {
      "mesh": 10,
      "name": "Object_14"
    },
    {
      "mesh": 11,
      "name": "Object_15"
    },
    {
      "mesh": 12,
      "name": "Object_16"
    },
    {
      "mesh": 13,
      "name": "Object_17"
    },
    {
      "mesh": 14,
      "name": "Object_18"
    },
    {
      "mesh": 15,
      "name": "Object_19"
    },
    {
      "mesh": 16,
      "name": "Object_20"
    },
    {
      "mesh": 17,
      "name": "Object_21"
    }
  ],
  "samplers": [
    {
      "magFilter": 9729,
      "minFilter": 9987,
      "wrapS": 10497,
      "wrapT": 10497
    }
  ],
  "scene": 0,
  "scenes": [
    {
      "name": "Sketchfab_Scene",
      "nodes": [
        0
      ]
    }
  ],
  "textures": [
    {
      "sampler": 0,
      "source": 0
    },
    {
      "sampler": 0,
      "source": 1
    },
    {
      "sampler": 0,
      "source": 2
    }
  ]
}
